<?xml version="1.0" encoding="UTF-8" standalone="no"?>
<!-- Created with Inkscape (http://www.inkscape.org/) -->

<svg
   width="45.251316mm"
   height="41.538433mm"
   viewBox="0 0 45.251316 41.538433"
   version="1.1"
   id="svg1"
   xml:space="preserve"
   inkscape:version="1.4 (86a8ad7, 2024-10-11)"
   sodipodi:docname="supercat-logo.svg"
   xmlns:inkscape="http://www.inkscape.org/namespaces/inkscape"
   xmlns:sodipodi="http://sodipodi.sourceforge.net/DTD/sodipodi-0.dtd"
   xmlns="http://www.w3.org/2000/svg"
   xmlns:svg="http://www.w3.org/2000/svg"><sodipodi:namedview
     id="namedview1"
     pagecolor="#ffffff"
     bordercolor="#000000"
     borderopacity="0.25"
     inkscape:showpageshadow="2"
     inkscape:pageopacity="0.0"
     inkscape:pagecheckerboard="0"
     inkscape:deskcolor="#d1d1d1"
     inkscape:document-units="mm"
     inkscape:zoom="1.4520903"
     inkscape:cx="174.23158"
     inkscape:cy="14.117579"
     inkscape:window-width="1920"
     inkscape:window-height="1017"
     inkscape:window-x="1912"
     inkscape:window-y="-8"
     inkscape:window-maximized="1"
     inkscape:current-layer="layer1" /><defs
     id="defs1" /><g
     inkscape:label="Слой 1"
     inkscape:groupmode="layer"
     id="layer1"
     transform="translate(-3.8095752,-5.41227)"><path
       style="fill:#000000;stroke-width:0.329223"
       d="m 22.493293,46.862714 c -2.44725,-0.24639 -5.035546,-1.02345 -7.31698,-2.19671 -2.081471,-1.07043 -3.733095,-2.26945 -5.3128983,-3.85697 -3.941727,-3.96099 -6.056481,-9.06169 -6.053837,-14.601599 0.0013,-2.444069 0.295629,-4.278868 1.051258,-6.550335 2.570889,-7.728249 9.6071903,-13.3380166 17.7505703,-14.1518296 1.908894,-0.190765 4.39717,-0.08178 6.149808,0.269364 2.766991,0.554369 5.690777,2.342734 6.784969,4.150099 0.771271,1.2739706 0.725443,2.5637866 -0.116262,3.2720346 -0.796367,0.670097 -1.909052,0.325694 -4.824805,-1.493405 -1.675356,-1.04523 -2.691062,-1.50016 -4.192012,-1.8775776 -1.810706,-0.455306 -2.414692,-0.528123 -4.398899,-0.530342 -1.612945,-0.002 -2.010581,0.02568 -2.865813,0.198044 -4.566578,0.9203526 -8.035493,3.5282986 -10.0466053,7.5530886 -0.544791,1.090274 -0.718005,1.731268 -0.718957,2.660549 -6.58e-4,0.776835 0.01725,0.863388 0.263152,1.263051 1.060502,1.723525 4.4968913,1.108092 6.7805943,-1.214359 0.675556,-0.687019 1.367006,-1.7829 2.727865,-4.323401 1.169465,-2.1832 1.403917,-2.477775 2.056309,-2.583643 0.249215,-0.04044 0.370378,-0.01412 0.511468,0.111155 0.910645,0.808516 0.726766,3.920104 -0.365618,6.186985 -0.187995,0.390123 -0.479912,0.890239 -0.648705,1.111368 -0.168794,0.221132 -0.306897,0.435851 -0.306897,0.477156 0,0.0413 0.279608,0.102648 0.621351,0.136324 1.317077,0.12978 2.681506,0.733568 3.472965,1.536859 1.3432,1.363283 1.552421,3.383922 0.523517,5.056104 -0.144368,0.23463 -0.26249,0.45891 -0.26249,0.49841 0,0.30897 1.634012,0.46386 2.529396,0.23977 0.909423,-0.2276 1.900624,-0.76432 2.589648,-1.402249 0.650769,-0.602514 1.184729,-1.315683 1.094443,-1.461766 -0.08556,-0.138438 -1.639573,-0.01574 -2.456201,0.193909 -0.400796,0.102902 -0.747576,0.168236 -0.770625,0.145187 -0.07538,-0.07538 0.640358,-0.393158 1.292697,-0.573928 0.428487,-0.11874 0.902127,-0.17699 1.439172,-0.17699 h 0.800489 l 0.144008,-0.433577 c 0.07921,-0.238466 0.12262,-0.468191 0.09647,-0.510499 -0.112219,-0.181573 -1.199201,-0.393623 -2.273492,-0.443513 l -1.132392,-0.05259 0.4616,-0.107429 c 0.621208,-0.144571 1.874177,-0.135867 2.459276,0.01709 0.312327,0.08164 0.506282,0.09504 0.563402,0.0389 0.129306,-0.127077 0.08204,-1.427919 -0.0763,-2.099794 -0.253044,-1.073734 -0.76523,-2.02236 -1.648736,-3.053645 -0.237491,-0.277215 -0.405783,-0.530042 -0.373987,-0.561842 0.0971,-0.0971 1.44998,-0.0588 2.142573,0.06067 0.699161,0.120604 1.685434,0.469557 2.169784,0.767695 l 0.296982,0.182804 0.416641,-0.211127 c 0.541588,-0.274443 1.654178,-0.593378 2.685008,-0.769687 0.87752,-0.150086 2.797335,-0.18608 3.329418,-0.06242 0.174794,0.04062 0.359396,0.04816 0.410232,0.01672 0.249014,-0.153902 0.898373,-2.063411 1.187484,-3.491923 0.08242,-0.407226 0.165724,-0.757147 0.185125,-0.777605 0.04816,-0.05079 0.189465,0.13749 0.97581,1.300247 1.141897,1.688505 2.179032,3.899731 2.673162,5.699323 0.11746,0.427782 0.250483,0.814705 0.295606,0.859828 0.05132,0.05132 0.237143,0.0292 0.496208,-0.05908 0.593026,-0.202064 1.866836,-0.348456 2.359838,-0.271204 l 0.41917,0.06568 -0.920682,0.157863 c -0.890074,0.152614 -1.664795,0.397523 -2.054862,0.649593 -0.159255,0.102915 -0.180957,0.178867 -0.141431,0.494921 0.02568,0.205343 0.07602,0.405668 0.111854,0.445162 0.03584,0.0395 0.628658,0.08323 1.317372,0.09719 0.947323,0.01919 1.368863,0.06533 1.731301,0.189507 l 0.479089,0.164137 -1.66972,0.04355 c -0.918348,0.02397 -1.691515,0.06542 -1.718152,0.09216 -0.02663,0.02673 -0.01156,0.45791 0.03354,0.958174 0.342098,3.796418 -0.389609,7.669418 -2.088571,11.054998 -1.04179,2.07601 -2.227473,3.71211 -3.919169,5.40799 -3.490836,3.49946 -7.904518,5.6002 -12.794081,6.08949 -1.060157,0.10609 -3.298418,0.0999 -4.411446,-0.0121 z m 7.543245,-2.92261 c 0.306734,-0.15102 0.871282,-0.53617 1.25455,-0.85589 1.679946,-1.40139 2.809227,-1.95712 3.963364,-1.9504 0.2635,0.002 0.635881,0.063 0.827518,0.13672 0.778267,0.29915 0.959333,0.22755 0.500864,-0.19806 -0.415075,-0.38533 -0.726148,-0.49612 -1.502594,-0.53514 -0.628447,-0.0316 -0.841747,-0.003 -1.410542,0.18782 -0.85303,0.28645 -1.66227,0.77224 -2.742055,1.64608 -1.233088,0.99789 -1.72155,1.18751 -2.295056,0.89094 -0.34154,-0.17662 -0.433794,-0.3771 -0.433794,-0.94271 0,-0.36218 0.06383,-0.59781 0.267019,-0.98568 0.33855,-0.64625 0.676711,-1.00393 1.388014,-1.46811 1.278942,-0.83462 2.28776,-1.21616 4.161108,-1.57376 2.095587,-0.40002 2.767168,-0.75636 3.241552,-1.71998 0.277374,-0.56342 0.4496,-1.45336 0.281265,-1.45336 -0.05107,0 -0.189856,0.21188 -0.308416,0.47085 -0.467022,1.02012 -1.343904,1.56985 -3.126719,1.9602 -3.613594,0.7912 -5.90726,2.08101 -6.67489,3.75354 -0.527642,1.14964 -0.202548,2.42375 0.725894,2.84497 0.435809,0.19771 1.239063,0.10897 1.882918,-0.20803 z m -15.463143,-5.37245 c 2.128463,-0.67833 3.460195,-2.50611 3.465016,-4.75568 0.0018,-0.84996 -0.124733,-1.44508 -0.490242,-2.30536 -0.546596,-1.28649 -1.778076,-2.74667 -2.973125,-3.52528 -0.316071,-0.20593 -0.574674,-0.38275 -0.574674,-0.39295 0,-0.0102 0.303785,-0.17206 0.675078,-0.3597 0.885947,-0.447743 2.218686,-1.740038 2.598226,-2.519381 0.226924,-0.465966 0.254525,-0.612655 0.254525,-1.352685 0,-0.715063 -0.03024,-0.888774 -0.218306,-1.25405 -0.263199,-0.511204 -0.600209,-0.789124 -0.857772,-0.707378 -0.100316,0.03184 -0.644,0.362165 -1.208188,0.734061 -3.12647,2.06087 -5.2783303,2.895556 -8.3447853,3.236865 -1.208611,0.134523 -1.308296,0.158287 -1.184281,0.282305 0.06948,0.06947 0.538368,0.101108 1.471643,0.09928 1.079301,-0.002 1.558946,-0.04356 2.26244,-0.195519 2.1676203,-0.46822 4.1754753,-1.372201 6.1865373,-2.785311 0.616933,-0.433498 0.849596,-0.44189 1.11672,-0.04027 0.265232,0.398768 0.217907,1.097461 -0.120957,1.785794 -0.512651,1.041342 -2.070382,2.237182 -3.740689,2.871649 -0.39569,0.1503 -0.71929,0.31554 -0.719115,0.36719 1.78e-4,0.0516 0.262861,0.22968 0.583742,0.39562 1.815146,0.93865 3.353697,2.54769 4.048821,4.2343 0.266509,0.64664 0.284678,0.75667 0.286602,1.73569 0.002,0.99745 -0.01071,1.07223 -0.276814,1.634 -0.510017,1.07668 -1.48271,1.88668 -2.78956,2.32297 -0.519453,0.17342 -1.866345,0.41427 -2.586787,0.46258 -0.187934,0.0126 -0.357039,0.0696 -0.375798,0.12679 -0.0453,0.13799 0.540748,0.1883 1.806328,0.15505 0.783635,-0.0206 1.154935,-0.0751 1.705415,-0.25058 z m 12.222707,0.1626 c 1.582371,-0.373 2.940534,-1.62483 3.639023,-3.35411 0.504936,-1.2501 0.630851,-2.99068 0.289621,-4.0036 -0.414749,-1.23116 -1.355628,-2.1086 -2.531474,-2.36077 -0.716218,-0.1536 -0.698753,0.0232 0.03827,0.38747 1.89447,0.9363 2.439242,2.87386 1.522099,5.41358 -0.475414,1.3165 -1.299778,2.26011 -2.491625,2.85204 -0.61378,0.30483 -0.820746,0.36299 -1.414167,0.39734 -0.45092,0.0261 -0.788873,10e-4 -0.961903,-0.0703 -0.272178,-0.11274 -0.520534,-0.47485 -0.519007,-0.75671 0.0016,-0.28471 0.408421,-1.01587 1.030885,-1.8525 0.864655,-1.16215 1.090581,-1.64991 1.090693,-2.35473 1.28e-4,-0.80028 -0.324644,-1.32228 -1.050425,-1.68833 -0.354066,-0.17856 -0.437431,-0.0552 -0.146419,0.21662 0.445662,0.41632 0.597596,0.96163 0.464596,1.6675 -0.131531,0.69808 -0.477393,1.29309 -1.239481,2.13237 -0.798711,0.87961 -1.017305,1.28623 -1.019531,1.89652 -0.0036,0.99543 0.780898,1.59855 2.088326,1.60546 0.359318,0.002 0.90405,-0.0557 1.210517,-0.1279 z M 36.9203,27.316944 c 0.149579,-0.14067 0.327103,-0.384698 0.394498,-0.542294 l 0.12254,-0.286536 0.282622,0.299665 c 0.563689,0.597685 1.448005,0.601215 1.96899,0.0078 0.254634,-0.290016 0.351702,-0.561951 0.200586,-0.561951 -0.03778,0 -0.222456,0.0784 -0.410396,0.174215 -0.510615,0.260326 -0.932725,0.229478 -1.302499,-0.09519 -0.172081,-0.15109 -0.351211,-0.417534 -0.40789,-0.606712 -0.09751,-0.32545 -0.08988,-0.349687 0.216691,-0.689027 0.174765,-0.193445 0.317753,-0.390801 0.317753,-0.438571 0,-0.115577 -0.851756,-0.110487 -1.539012,0.0092 -0.666772,0.116114 -0.697252,0.230874 -0.159571,0.600806 0.434893,0.299217 0.478667,0.475905 0.265778,1.072825 -0.24805,0.69551 -0.766194,0.95563 -1.440482,0.723152 -0.628875,-0.21682 -0.703187,0.101572 -0.106602,0.456748 0.479523,0.28548 1.222842,0.22769 1.596994,-0.12417 z m -2.522759,-1.947586 c 0.611225,-0.290443 1.09944,-0.829921 1.264311,-1.397054 0.25927,-0.891858 -0.129691,-2.024296 -0.861668,-2.508695 -0.524999,-0.347429 -1.438962,-0.38525 -2.091416,-0.08655 -1.243145,0.569131 -1.799381,1.682712 -1.441868,2.886601 0.129938,0.43754 0.773694,1.108609 1.200133,1.251044 0.465936,0.155627 1.453618,0.08127 1.930508,-0.145346 z m 8.56108,-0.956073 c 0.783133,-0.385533 1.018135,-0.740301 1.074752,-1.622467 0.02482,-0.387011 -0.0023,-0.807804 -0.0671,-1.039113 -0.142373,-0.508511 -0.607518,-1.041832 -1.165064,-1.335835 -0.400141,-0.210999 -0.539804,-0.236 -1.318614,-0.23606 -0.80281,-6.2e-5 -0.907625,0.02018 -1.337573,0.258325 -0.795755,0.440757 -1.232081,1.181683 -1.232081,2.092202 0,0.789684 0.70748,1.692736 1.604886,2.048537 0.691023,0.273973 1.684874,0.206548 2.440794,-0.165589 z"
       id="path1"
       sodipodi:nodetypes="ssscssssssscssccssscsssssssssssssscssscsssssssscssscssssscscssssssccscssssssscssscsssssssssssssssssssssssssscsssssssscssssssssssssssccssssssscscscsssssssssssssccssssssssccssssss" /></g></svg>
